<svg xmlns="http://www.w3.org/2000/svg" viewBox="0 0 512 512" id="email">
  <path fill="#96b7c2" d="M464.344,121.171a25.037,25.037,0,0,1,23.006,24.954V414.486l-462.7-.042V146.125A25.035,25.035,0,0,1,49.685,121.09H297.027Z"></path>
  <path fill="#383938" d="M5.866,396.2H506.134A5.866,5.866,0,0,1,512,402.066V417.4a36.321,36.321,0,0,1-36.321,36.321H36.321A36.321,36.321,0,0,1,0,417.4v-15.33A5.866,5.866,0,0,1,5.866,396.2Z"></path>
  <line x1="279.214" x2="232.786" y1="424.958" y2="424.958" fill="none" stroke="#fff" stroke-linecap="round" stroke-linejoin="round" stroke-width="6"></line>
  <rect width="154.956" height="97.168" x="178.522" y="209.998" fill="#f9b118" rx="12.227" transform="rotate(11.229 256.006 258.589)"></rect>
  <rect width="154.956" height="97.168" x="306.141" y="80.455" fill="#f9b118" rx="12.227" transform="rotate(157.541 383.619 129.04)"></rect>
  <path fill="#c17f2a" d="M192.844 199.7a12.165 12.165 0 018.62-1.48l128 25.42a12.2 12.2 0 017.41 4.66l-.08.04-74.52 37a12.226 12.226 0 01-14.66-2.91l-54.69-62.63-.08-.1M298.4 115.087a12.149 12.149 0 016.35-6.02l120.61-49.85a12.171 12.171 0 018.74-.23l-.06.11-41.45 72.09a12.253 12.253 0 01-13.82 5.71l-80.29-21.79-.08-.02"></path>
</svg>
